<svg width="16" height="20" viewBox="0 0 16 20" fill="none" xmlns="http://www.w3.org/2000/svg">
<path fill-rule="evenodd" clip-rule="evenodd" d="M8 1.75C6.35897 1.75 4.78516 2.4019 3.62478 3.56228C2.4644 4.72266 1.8125 6.29647 1.8125 7.9375C1.8125 10.7837 3.4019 13.3754 5.08129 15.3067C5.91259 16.2627 6.74566 17.0335 7.37104 17.565C7.61836 17.7753 7.83241 17.9474 8 18.0781C8.16758 17.9474 8.38164 17.7753 8.62896 17.565C9.25434 17.0335 10.0874 16.2627 10.9187 15.3067C12.5981 13.3754 14.1875 10.7837 14.1875 7.9375C14.1875 6.29647 13.5356 4.72266 12.3752 3.56228C11.2148 2.4019 9.64103 1.75 8 1.75ZM8 18.9375C7.60574 19.5007 7.60555 19.5006 7.60533 19.5004L7.60476 19.5L7.60316 19.4989L7.59808 19.4953L7.58059 19.4829C7.56573 19.4723 7.54454 19.457 7.51743 19.4372C7.46322 19.3977 7.38532 19.3399 7.28711 19.2649C7.09076 19.1148 6.81284 18.8952 6.48052 18.6127C5.81684 18.0486 4.93116 17.2295 4.04371 16.2089C2.28561 14.1871 0.4375 11.2788 0.4375 7.9375C0.4375 5.9318 1.23426 4.00825 2.6525 2.59C4.07075 1.17176 5.9943 0.375 8 0.375C10.0057 0.375 11.9293 1.17176 13.3475 2.59C14.7657 4.00825 15.5625 5.9318 15.5625 7.9375C15.5625 11.2788 13.7144 14.1871 11.9563 16.2089C11.0688 17.2295 10.1832 18.0486 9.51948 18.6127C9.18716 18.8952 8.90924 19.1148 8.71289 19.2649C8.61468 19.3399 8.53678 19.3977 8.48257 19.4372C8.45546 19.457 8.43427 19.4723 8.41941 19.4829L8.40192 19.4953L8.39684 19.4989L8.39524 19.5L8.39467 19.5004C8.39445 19.5006 8.39426 19.5007 8 18.9375ZM8 18.9375L8.39426 19.5007C8.15754 19.6664 7.84246 19.6664 7.60574 19.5007L8 18.9375Z" fill="#C47F17"/>
</svg>
